<svg version="1.1" id="Layer_1" xmlns="http://www.w3.org/2000/svg" xmlns:xlink="http://www.w3.org/1999/xlink" x="0px" y="0px"
	 width="100%" viewBox="0 0 218 231" enable-background="new 0 0 218 231" xml:space="preserve">
<path fill="#020202" opacity="1.000000" stroke="none" 
	d="
M1.000000,25.000000 
	C1.000000,24.555555 1.000000,24.111111 1.330377,23.169094 
	C4.167423,17.977839 5.840686,12.466284 9.416868,8.822182 
	C12.941603,5.230506 18.393587,3.530159 23.000000,1.000000 
	C64.020897,1.000000 105.041786,1.000000 146.696533,1.349140 
	C158.573380,2.970498 168.127289,12.300758 169.064377,23.546490 
	C169.558167,29.472301 169.151672,35.473133 169.151672,41.056721 
	C170.185699,41.587669 170.476624,41.866699 170.768967,41.868229 
	C178.262802,41.907440 185.758011,41.838009 193.250473,41.951733 
	C204.299377,42.119438 213.737122,49.167892 217.248047,59.670261 
	C217.740738,61.144028 218.411606,62.558228 219.000000,64.000000 
	C219.000000,64.750000 219.000000,65.500000 218.663422,66.882988 
	C218.221939,68.168465 218.025452,68.820923 218.025208,69.473457 
	C218.008850,114.107689 218.000458,158.741943 218.047958,203.376129 
	C218.049240,204.584427 218.668762,205.792053 219.000000,207.000000 
	C219.000000,208.066666 219.000000,209.133347 218.652359,210.705444 
	C216.514999,217.165527 213.942352,222.792099 208.529343,226.173950 
	C204.652756,228.595901 200.197220,230.091232 196.000000,232.000000 
	C154.312439,232.000000 112.624878,232.000000 70.379677,231.653915 
	C62.038280,228.467361 55.521843,223.926453 52.681767,215.904785 
	C51.171772,211.639893 50.695145,206.867523 50.533958,202.296677 
	C50.215260,193.259048 50.439899,184.202271 50.439899,174.906097 
	C44.161903,174.906097 38.524235,174.702637 32.905819,174.945160 
	C17.546215,175.608124 6.528206,169.869919 1.783573,154.472610 
	C1.716590,154.255234 1.269626,154.154938 1.000003,154.000000 
	C1.000000,152.933334 1.000000,151.866653 1.347202,150.152863 
	C1.794329,148.686066 1.981371,147.866440 1.981675,147.046738 
	C1.996292,107.551498 2.003458,68.056244 1.953313,28.561062 
	C1.951806,27.373640 1.331697,26.187002 1.000000,25.000000 
M186.429230,61.686401 
	C150.445709,61.685730 114.462204,61.681278 78.478691,61.687958 
	C72.190018,61.689125 70.109657,63.735897 70.107773,70.018684 
	C70.094460,114.498344 70.096130,158.978012 70.106171,203.457672 
	C70.107666,210.084671 72.057442,212.028244 78.681046,212.029861 
	C115.830727,212.038940 152.980408,212.038147 190.130081,212.030670 
	C197.189056,212.029251 198.955276,210.262817 198.957138,203.231415 
	C198.963989,177.243301 198.959869,151.255173 198.959869,125.267059 
	C198.959854,106.608925 198.983124,87.950745 198.945099,69.292686 
	C198.934189,63.935154 196.727295,61.785542 191.400208,61.676998 
	C190.068207,61.649857 188.735001,61.681671 186.429230,61.686401 
M50.512459,118.500267 
	C50.513531,102.011215 50.411411,85.521339 50.544838,69.033356 
	C50.676960,52.707016 61.615776,41.947227 77.892120,41.925892 
	C100.044075,41.896851 122.196106,41.918648 144.348099,41.918648 
	C146.112427,41.918648 147.876755,41.918648 149.905457,41.918648 
	C149.905457,37.489197 149.911240,33.681652 149.904190,29.874136 
	C149.891190,22.842554 148.047623,20.961514 141.174713,20.961370 
	C104.032646,20.960598 66.890579,20.961117 29.748508,20.960878 
	C22.774204,20.960835 21.039696,22.711557 21.038584,29.847910 
	C21.032539,68.655540 21.035446,107.463165 21.037651,146.270798 
	C21.037718,147.436386 20.597250,148.967300 21.168316,149.696915 
	C22.689579,151.640533 24.553713,154.600784 26.455347,154.737411 
	C34.336430,155.303619 42.281788,154.975082 50.512413,154.975082 
	C50.512413,142.772720 50.512413,131.136490 50.512459,118.500267 
z"/>
<path fill="#FEFEFE" opacity="1.000000" stroke="none" 
	d="
M1.000003,154.468658 
	C1.269626,154.154938 1.716590,154.255234 1.783573,154.472610 
	C6.528206,169.869919 17.546215,175.608124 32.905819,174.945160 
	C38.524235,174.702637 44.161903,174.906097 50.439899,174.906097 
	C50.439899,184.202271 50.215260,193.259048 50.533958,202.296677 
	C50.695145,206.867523 51.171772,211.639893 52.681767,215.904785 
	C55.521843,223.926453 62.038280,228.467361 69.911018,231.653915 
	C47.068657,232.000000 24.137310,232.000000 1.000000,232.000000 
	C1.000000,206.312805 1.000000,180.625061 1.000003,154.468658 
z"/>
<path fill="#FEFEFE" opacity="1.000000" stroke="none" 
	d="
M219.000000,63.531342 
	C218.411606,62.558228 217.740738,61.144028 217.248047,59.670261 
	C213.737122,49.167892 204.299377,42.119438 193.250473,41.951733 
	C185.758011,41.838009 178.262802,41.907440 170.768967,41.868229 
	C170.476624,41.866699 170.185699,41.587669 169.151672,41.056721 
	C169.151672,35.473133 169.558167,29.472301 169.064377,23.546490 
	C168.127289,12.300758 158.573380,2.970498 147.165192,1.349140 
	C170.921967,1.000000 194.843933,1.000000 219.000000,1.000000 
	C219.000000,21.686972 219.000000,42.374828 219.000000,63.531342 
z"/>
<path fill="#F8F8F8" opacity="1.000000" stroke="none" 
	d="
M22.531218,1.000000 
	C18.393587,3.530159 12.941603,5.230506 9.416868,8.822182 
	C5.840686,12.466284 4.167423,17.977839 1.330377,22.835760 
	C1.000000,15.740432 1.000000,8.480865 1.000000,1.000000 
	C8.019269,1.000000 15.040852,1.000000 22.531218,1.000000 
z"/>
<path fill="#F9F9F9" opacity="1.000000" stroke="none" 
	d="
M196.468719,232.000000 
	C200.197220,230.091232 204.652756,228.595901 208.529343,226.173950 
	C213.942352,222.792099 216.514999,217.165527 218.652359,211.105438 
	C219.000000,217.929596 219.000000,224.859207 219.000000,232.000000 
	C211.647171,232.000000 204.292313,232.000000 196.468719,232.000000 
z"/>
<path fill="#4F4F4F" opacity="1.000000" stroke="none" 
	d="
M219.000000,206.531342 
	C218.668762,205.792053 218.049240,204.584427 218.047958,203.376129 
	C218.000458,158.741943 218.008850,114.107689 218.025208,69.473457 
	C218.025452,68.820923 218.221939,68.168465 218.663422,67.257988 
	C219.000000,113.354225 219.000000,159.708450 219.000000,206.531342 
z"/>
<path fill="#4F4F4F" opacity="1.000000" stroke="none" 
	d="
M1.000000,25.468658 
	C1.331697,26.187002 1.951806,27.373640 1.953313,28.561062 
	C2.003458,68.056244 1.996292,107.551498 1.981675,147.046738 
	C1.981371,147.866440 1.794329,148.686066 1.347202,149.752869 
	C1.000000,108.645775 1.000000,67.291542 1.000000,25.468658 
z"/>
<path fill="#FFFFFF" opacity="1.000000" stroke="none" 
	d="
M186.915802,61.686394 
	C188.735001,61.681671 190.068207,61.649857 191.400208,61.676998 
	C196.727295,61.785542 198.934189,63.935154 198.945099,69.292686 
	C198.983124,87.950745 198.959854,106.608925 198.959869,125.267059 
	C198.959869,151.255173 198.963989,177.243301 198.957138,203.231415 
	C198.955276,210.262817 197.189056,212.029251 190.130081,212.030670 
	C152.980408,212.038147 115.830727,212.038940 78.681046,212.029861 
	C72.057442,212.028244 70.107666,210.084671 70.106171,203.457672 
	C70.096130,158.978012 70.094460,114.498344 70.107773,70.018684 
	C70.109657,63.735897 72.190018,61.689125 78.478691,61.687958 
	C114.462204,61.681278 150.445709,61.685730 186.915802,61.686394 
z"/>
<path fill="#FCFCFC" opacity="1.000000" stroke="none" 
	d="
M50.512436,119.000275 
	C50.512413,131.136490 50.512413,142.772720 50.512413,154.975082 
	C42.281788,154.975082 34.336430,155.303619 26.455347,154.737411 
	C24.553713,154.600784 22.689579,151.640533 21.168316,149.696915 
	C20.597250,148.967300 21.037718,147.436386 21.037651,146.270798 
	C21.035446,107.463165 21.032539,68.655540 21.038584,29.847910 
	C21.039696,22.711557 22.774204,20.960835 29.748508,20.960878 
	C66.890579,20.961117 104.032646,20.960598 141.174713,20.961370 
	C148.047623,20.961514 149.891190,22.842554 149.904190,29.874136 
	C149.911240,33.681652 149.905457,37.489197 149.905457,41.918648 
	C147.876755,41.918648 146.112427,41.918648 144.348099,41.918648 
	C122.196106,41.918648 100.044075,41.896851 77.892120,41.925892 
	C61.615776,41.947227 50.676960,52.707016 50.544838,69.033356 
	C50.411411,85.521339 50.513531,102.011215 50.512436,119.000275 
z"/>
</svg>